<?xml version="1.0" encoding="utf-8"?>
<!-- Generator: Adobe Illustrator 27.8.0, SVG Export Plug-In . SVG Version: 6.00 Build 0)  -->
<svg version="1.0" id="katman_1" xmlns="http://www.w3.org/2000/svg" xmlns:xlink="http://www.w3.org/1999/xlink" x="0px" y="0px"
	 viewBox="0 0 841.89 595.28" style="enable-background:new 0 0 841.89 595.28;" xml:space="preserve">
<style type="text/css">
	.st0{fill:#F49819;}
</style>
<g>
	<path d="M306.48,298.52c2.96,1.85,7.39,3.33,12.94,4.44c5.55,1.48,11.46,1.85,17.38,1.85c5.92,0,11.09-0.74,15.9-2.22
		c4.81-1.48,8.87-3.7,12.57-6.29s6.29-6.29,8.13-9.98c1.85-3.7,2.96-8.13,2.96-12.94c0-5.92-1.85-11.09-5.18-15.9
		c-3.33-4.44-9.24-8.13-17.38-10.72l-15.9-5.18c-5.92-1.85-10.35-4.07-12.57-6.29c-2.22-2.22-3.33-4.44-3.33-8.13
		c0-4.44,1.85-8.13,5.18-9.98s8.5-3.33,15.16-3.33c8.13,0,15.16,1.48,21.81,4.44c1.85,0.74,3.33,1.48,4.44,1.48
		c1.85,0,2.59-1.11,2.59-3.7v-5.18c0-1.48-0.37-2.96-1.11-3.7s-1.85-1.85-3.33-2.96c-1.11-0.74-2.96-1.48-4.81-1.85
		c-1.85-0.74-4.07-1.11-6.29-1.85c-2.22-0.37-4.81-1.11-7.39-1.48c-2.59-0.37-5.18-0.37-7.76-0.37c-4.81,0-9.61,0.74-14.05,1.85
		c-4.44,1.48-8.5,3.33-11.83,5.92c-3.33,2.96-6.29,5.92-8.13,9.61c-1.85,3.7-2.96,7.76-2.96,12.57c0,5.92,1.85,11.46,5.55,16.27
		c3.7,5.18,9.61,8.87,18.12,11.46l16.27,5.18c5.55,1.85,9.24,3.7,11.46,5.92c2.22,2.22,2.96,4.81,2.96,7.76
		c0,4.44-1.85,8.13-5.92,10.72s-9.24,3.7-16.64,3.7c-4.44,0-8.87-0.37-13.31-1.48c-4.44-1.11-8.5-2.22-12.57-4.07
		c-1.11-0.37-2.22-0.74-2.96-1.11c-0.74-0.37-1.48-0.37-2.22-0.37c-1.85,0-2.59,1.11-2.59,3.7v5.55c0,1.11,0.37,2.22,0.74,3.33
		C303.15,296.67,304.63,297.41,306.48,298.52z M115.69,243.8c-4.07-0.74-8.13-0.74-11.83-0.74c-11.46,0-20.7,2.96-27.73,8.87
		c-6.66,5.92-10.35,13.68-10.35,23.29c0,9.24,2.59,16.27,8.13,21.81c5.55,5.55,12.94,8.13,22.55,8.13c13.31,0,24.4-5.18,33.28-15.53
		c1.11,2.59,2.22,4.81,3.33,6.66c1.11,1.85,2.59,3.7,4.07,5.18c1.11,1.11,2.22,1.48,3.33,1.48c0.74,0,1.85-0.37,2.96-1.11l7.02-4.81
		c1.48-1.11,2.22-2.22,2.22-3.33c0-0.74-0.37-1.48-0.74-2.59c-1.48-2.96-2.96-5.55-3.7-8.13c-0.74-2.59-1.48-5.92-1.48-9.98v-36.97
		c0-12.2-3.33-21.44-9.24-27.73c-5.92-6.29-16.27-9.24-29.58-9.24c-6.29,0-12.2,0.74-17.75,2.22c-5.55,1.48-10.35,3.33-14.05,5.18
		c-1.48,0.74-2.59,1.48-2.96,2.22c-0.37,0.74-0.74,2.22-0.74,4.07v5.55c0,2.22,0.74,3.7,2.22,3.7c0.37,0,1.11,0,1.85-0.37
		c0.74-0.37,2.22-0.74,4.07-1.48c4.07-1.48,8.13-2.96,12.2-3.7c4.07-1.11,8.13-1.48,12.2-1.48c8.5,0,14.79,1.85,18.49,5.18
		c3.7,3.33,5.18,9.61,5.18,18.12v8.13C123.82,245.28,119.76,244.54,115.69,243.8z M128.63,263.77c0,3.7-0.37,7.02-1.11,9.61
		c-0.74,2.59-1.85,5.18-3.7,7.39c-2.96,3.33-6.66,5.92-10.72,7.02c-4.07,1.11-8.13,2.22-11.83,2.22c-5.18,0-9.24-1.48-11.83-4.07
		c-2.96-2.59-4.07-6.66-4.07-11.83c0-5.55,1.85-9.98,5.55-12.94c3.7-2.96,9.24-4.44,16.64-4.44c3.33,0,7.02,0.37,10.72,0.74
		s7.02,1.11,10.35,1.85V263.77z M185.2,296.67c0.74,2.22,1.48,3.7,2.22,4.44c0.74,0.74,2.22,1.11,4.44,1.11h9.61
		c2.22,0,3.7-0.37,4.44-1.11c0.74-0.74,1.48-2.22,2.22-4.44l17.38-72.84l17.75,72.84c0.37,2.22,1.11,3.7,2.22,4.44
		c1.11,0.74,2.59,1.11,4.44,1.11h9.61c1.85,0,3.33-0.37,4.44-1.11c0.74-0.74,1.85-2.22,2.22-4.44l27.36-87.26
		c0.37-1.11,0.74-2.22,0.74-2.96c0-0.74,0.37-1.11,0.37-1.85c0-1.85-0.74-2.96-2.96-2.96h-10.35c-2.22,0-3.7,0.37-4.44,1.11
		c-0.74,0.74-1.48,2.22-2.22,4.44l-19.6,75.79l-17.75-75.42c-0.37-2.22-1.11-3.7-2.22-4.44c-0.74-0.74-2.59-1.11-4.44-1.11h-9.24
		c-2.22,0-3.7,0.37-4.44,1.11s-1.85,1.85-2.22,4.44l-17.75,74.69l-18.86-75.06c-0.74-2.22-1.48-3.7-2.22-4.44s-2.22-1.11-4.44-1.11
		h-11.09c-1.85,0-2.96,0.74-2.96,2.96c0,0.74,0.37,2.22,1.11,4.44C158.58,209.05,185.2,296.67,185.2,296.67z"/>
	<path class="st0" d="M352.69,351.39c-41.78,17.75-86.89,26.25-128.3,26.25c-61.01,0-120.16-16.64-167.86-44.74
		c-4.07-2.59-7.39,1.85-3.7,4.81c44.37,39.93,102.78,63.96,167.86,63.96c46.22,0,100.2-14.42,137.54-42.15
		C364.16,355.46,358.98,348.8,352.69,351.39z"/>
	<path class="st0" d="M329.4,335.86c-3.33,2.22-2.59,5.55,0.74,5.18c11.83-1.48,38.45-4.44,43.26,1.48
		c4.81,6.29-5.18,31.06-9.61,42.52c-1.48,3.33,1.48,4.81,4.44,2.22c19.97-16.64,25.14-51.76,21.07-56.57
		C385.6,325.14,350.48,320.7,329.4,335.86z"/>
	<path d="M478.77,278.92c-0.74,0-1.48-0.37-1.48-1.48v-61.01c0-0.74,0.37-1.48,1.48-1.48h1.85c1.11,0,1.48,0.37,1.48,1.48l0.37,3.7
		c2.59-2.22,5.55-3.7,8.13-4.81s5.18-1.48,8.13-1.48c5.92,0,10.35,2.22,13.68,6.29c3.33,4.07,5.18,9.98,5.18,17.01
		c0,7.39-1.85,13.31-5.18,17.75c-3.33,4.44-8.13,6.66-14.42,6.66c-5.55,0-10.35-2.22-15.16-6.29v22.18c0,0.74-0.37,1.48-1.48,1.48
		C481.35,278.92,478.77,278.92,478.77,278.92z M497.25,256.74c4.81,0,8.5-1.48,11.09-4.81c2.59-3.33,3.7-8.13,3.7-14.42
		c0-12.57-4.81-18.86-14.42-18.86c-4.81,0-9.98,1.85-14.79,5.55v26.25c2.59,2.22,4.81,3.7,7.02,4.44
		C492.08,256,494.66,256.37,497.25,256.74z M539.4,261.18c-4.07,0-7.39-1.11-9.98-3.7c-2.22-2.22-3.7-5.55-3.7-9.61
		c0-4.44,1.48-7.76,4.44-10.35c2.96-2.59,7.02-3.7,12.2-3.7c4.07,0,8.13,0.74,12.94,2.22v-7.39c0-3.7-0.74-6.29-2.59-7.76
		c-1.85-1.48-4.44-2.22-8.5-2.22c-4.07,0-8.5,0.74-12.94,2.22c-0.37,0-1.11,0.37-1.48,0.37c-0.74,0-0.74-0.37-0.74-1.11v-1.48
		c0-0.37,0-0.74,0.37-1.11l0.74-0.74c4.81-1.85,9.61-2.96,15.16-2.96c5.55,0,9.24,1.11,11.83,3.33c2.59,2.22,3.7,5.55,3.7,9.98v31.8
		c0,0.74-0.37,1.48-1.48,1.48h-1.85c-0.74,0-1.48-0.37-1.48-1.48l-0.37-3.7C550.49,259.33,544.95,261.55,539.4,261.18L539.4,261.18z
		 M540.14,256.74c2.22,0,4.81-0.37,7.39-1.48c2.59-1.11,5.18-2.22,8.13-4.07V240.1c-3.86-1.04-7.84-1.53-11.83-1.48
		c-8.5,0-12.57,3.33-12.57,9.61c0,2.96,0.74,4.81,2.22,6.29C534.96,256,537.18,256.37,540.14,256.74z M576,260.44
		c-0.74,0-1.48-0.37-1.48-1.48v-42.52c0-0.74,0.37-1.48,1.48-1.48h1.85c1.11,0,1.48,0.37,1.48,1.48l0.37,5.18
		c2.22-2.59,4.44-4.44,6.66-5.18c2.22-1.11,4.81-1.48,7.39-1.48h2.22c0.74,0,1.48,0.37,1.48,1.48v2.22c0,0.37,0,0.37-0.37,0.74
		c0,0.37-0.37,0.37-0.74,0.37h-3.33c-2.59,0-5.18,0.37-7.39,1.48c-2.22,1.11-4.07,2.59-6.29,4.81v32.91c0,0.74-0.37,1.48-1.48,1.48
		C577.85,260.44,576,260.44,576,260.44z M621.11,260.81c-3.7,0-6.29-0.74-8.13-2.96c-1.85-1.85-2.96-4.44-2.96-8.13v-29.95h-7.02
		c-0.74,0-1.48-0.37-1.48-1.48v-0.74c0-0.37,0-0.74,0.37-1.11c0.37-0.37,0.37-0.37,1.11-0.37l7.39-0.74l0.74-11.83
		c0-0.37,0.37-0.74,0.37-1.11c0-0.37,0.37-0.37,1.11-0.37h1.48c0.74,0,1.48,0.37,1.48,1.48v11.83h12.94c0.74,0,1.48,0.37,1.48,1.48
		v1.85c0,0.74-0.37,1.48-1.48,1.48h-12.94v29.21c0,2.59,0.37,4.07,1.48,5.18c1.11,1.11,2.96,1.48,5.18,1.48c1.85,0,3.33,0,4.44-0.37
		c0.74,0,1.11-0.37,1.48-0.37h0.74c0.74,0,1.11,0.37,1.11,1.11v1.48c0,1.11-0.37,1.48-1.11,1.85
		C626.66,260.44,624.07,260.81,621.11,260.81z M641.08,260.44c-0.74,0-1.48-0.37-1.48-1.48v-42.52c0-0.74,0.37-1.48,1.48-1.48h1.85
		c1.11,0,1.48,0.37,1.48,1.48l0.37,3.7c2.96-2.22,5.92-3.7,9.24-4.81c3.33-1.11,6.29-1.85,9.61-1.85c4.44,0,7.76,1.11,9.98,3.33
		c2.22,2.22,3.33,5.55,3.33,10.35v31.43c0,0.74-0.37,1.48-1.48,1.48h-2.22c-0.74,0-1.48-0.37-1.48-1.48v-29.21
		c0-3.7-0.74-6.66-2.22-8.5c-1.48-1.85-4.07-2.59-7.02-2.59c-5.92,0-11.83,1.85-17.38,5.55v34.75c0,0.74-0.37,1.48-1.48,1.48
		C643.66,260.07,641.08,260.44,641.08,260.44z M709.85,261.55c-7.02,0-12.57-1.85-16.27-5.92c-3.7-4.07-5.55-9.98-5.55-18.12
		c0-7.39,1.85-13.31,5.55-17.75c3.7-4.07,8.87-6.29,15.16-6.29c5.55,0,9.61,1.48,12.57,4.81c2.96,2.96,4.44,7.76,4.44,13.31
		c0,2.59,0,4.07-0.37,5.55c-0.37,0.74-0.74,1.48-1.48,1.48h-30.32c0,6.29,1.48,11.09,4.07,14.05c2.59,2.96,7.02,4.44,12.57,4.44
		c4.44,0,8.5-0.74,12.2-2.22c0.74-0.37,1.48-0.37,1.48-0.37c0.37,0,0.37,0,0.74,0.37s0.37,0.37,0.37,0.74v1.11
		c0,1.11-0.37,1.48-1.11,1.85C719.84,260.44,715.03,261.55,709.85,261.55z M720.95,234.56v-2.96c0-4.44-1.11-7.76-3.33-9.98
		c-2.22-2.22-5.18-3.33-9.24-3.33c-9.61,0-14.42,5.55-15.16,15.9h27.73C720.95,234.19,720.95,234.56,720.95,234.56z M738.69,260.44
		c-0.74,0-1.48-0.37-1.48-1.48v-42.52c0-0.74,0.37-1.48,1.48-1.48h1.85c1.11,0,1.48,0.37,1.48,1.48l0.37,5.18
		c2.22-2.59,4.44-4.44,6.66-5.18c2.22-1.11,4.81-1.48,7.39-1.48h2.22c0.74,0,1.48,0.37,1.48,1.48v2.22c0,0.37,0,0.37-0.37,0.74
		c0,0.37-0.37,0.37-0.74,0.37h-3.33c-2.59,0-5.18,0.37-7.39,1.48c-2.22,1.11-4.07,2.59-6.29,4.81v32.91c0,0.74-0.37,1.48-1.48,1.48
		C740.53,260.44,738.69,260.44,738.69,260.44z M478.77,359.9c-0.74,0-1.48-0.37-1.48-1.48v-42.15c0-0.74,0.37-1.48,1.48-1.48h1.85
		c1.11,0,1.48,0.37,1.48,1.48l0.37,3.7c2.96-2.22,5.92-3.7,9.24-4.81c3.33-1.11,6.29-1.85,9.61-1.85c4.44,0,7.76,1.11,9.98,3.33
		c2.22,2.22,3.33,5.55,3.33,10.35v31.43c0,0.74-0.37,1.48-1.48,1.48h-2.59c-0.74,0-1.48-0.37-1.48-1.48v-29.21
		c0-4.07-0.74-6.66-2.22-8.5c-1.48-1.85-4.07-2.59-7.02-2.59c-5.92,0-11.83,1.85-17.38,5.92v34.75c0,0.74-0.37,1.48-1.48,1.48
		C481.35,359.9,478.77,359.9,478.77,359.9z M547.53,361.37c-7.02,0-12.57-1.85-16.27-5.92c-3.7-4.07-5.55-9.98-5.55-18.12
		c0-7.39,1.85-13.31,5.55-17.75c3.7-4.07,8.87-6.29,15.16-6.29c5.55,0,9.61,1.48,12.57,4.81c2.96,2.96,4.44,7.39,4.44,13.31
		c0,2.59,0,4.07-0.37,5.55c-0.37,0.74-0.74,1.48-1.48,1.48h-30.32c0,6.29,1.48,11.09,4.07,14.05c2.59,2.96,7.02,4.44,12.57,4.44
		c4.44,0,8.5-0.74,12.2-2.22c0.74-0.37,1.48-0.37,1.48-0.37c0.37,0,0.37,0,0.74,0.37s0.37,0.37,0.37,0.74v1.48
		c0,1.11-0.37,1.48-1.11,1.85C557.52,360.26,552.71,361.37,547.53,361.37z M558.63,334.01v-2.96c0-4.44-1.11-7.76-3.33-9.98
		c-2.22-2.22-5.18-3.33-9.24-3.33c-9.61,0-14.42,5.18-15.16,15.9C530.9,333.64,558.63,334.01,558.63,334.01z M588.94,360.63
		c-3.7,0-6.29-0.74-8.13-2.96c-1.85-1.85-2.96-4.44-2.96-8.13v-30.32h-7.02c-0.74,0-1.48-0.37-1.48-1.48v-0.74
		c0-0.37,0-0.74,0.37-1.11s0.37-0.37,1.11-0.37l7.39-0.74l0.74-11.83c0-0.37,0.37-0.74,0.37-1.11c0.37-0.37,0.37-0.37,1.11-0.37
		h1.48c0.74,0,1.48,0.37,1.48,1.48v11.83h12.94c0.74,0,1.48,0.37,1.48,1.48v1.85c0,0.74-0.37,1.48-1.48,1.48H583.4v29.58
		c0,2.59,0.37,4.07,1.48,5.18s2.96,1.48,5.18,1.48c1.85,0,3.33,0,4.44-0.37c0.74,0,1.11-0.37,1.48-0.37h0.74
		c0.74,0,1.11,0.37,1.11,1.11v1.48c0,1.11-0.37,1.48-1.11,1.85C594.49,360.27,591.9,360.63,588.94,360.63z M618.15,359.9
		c-0.74,0-1.48-0.37-1.85-1.11l-14.05-41.78c-0.37-0.74-0.37-1.11-0.37-1.48c0-0.74,0.37-0.74,1.11-0.74h2.96
		c0.74,0,1.48,0.37,1.48,1.11l12.2,38.08l10.72-38.08c0.37-0.74,0.74-1.11,1.85-1.11h3.33c0.74,0,1.48,0.37,1.85,1.11l10.72,38.08
		l12.57-38.45c0.37-0.74,0.74-1.11,1.48-1.11h2.59c0.74,0,1.11,0.37,1.11,0.74c0,0.37,0,0.74-0.37,1.48l-14.79,41.78
		c-0.37,0.74-0.74,1.11-1.85,1.11h-2.96c-0.74,0-1.48-0.37-1.85-1.11l-10.72-38.08l-10.72,38.08c-0.37,0.74-0.74,1.11-1.85,1.11
		L618.15,359.9L618.15,359.9z M692.47,361.37c-6.66,0-11.83-2.22-15.16-6.29c-3.33-4.07-5.55-9.98-5.55-17.75s1.85-13.31,5.55-17.75
		c3.7-4.44,8.87-6.29,15.16-6.29c6.29,0,11.83,2.22,15.16,6.29c3.7,4.07,5.55,9.98,5.55,17.75s-1.85,13.31-5.55,17.75
		C704.3,359.16,699.12,361.37,692.47,361.37z M692.47,356.57c10.35,0,15.53-6.29,15.53-19.23c0-12.94-5.18-19.23-15.53-19.23
		c-10.35,0-15.53,6.29-15.53,19.23C676.94,350.28,682.12,356.57,692.47,356.57z M726.49,359.9c-0.74,0-1.48-0.37-1.48-1.48v-42.15
		c0-0.74,0.37-1.48,1.48-1.48h1.85c1.11,0,1.48,0.37,1.48,1.48l0.37,5.18c2.22-2.59,4.44-4.44,6.66-5.18
		c2.22-1.11,4.81-1.48,7.39-1.48h2.22c0.74,0,1.48,0.37,1.48,1.48v2.22c0,0.37,0,0.37-0.37,0.74c0,0-0.37,0.37-0.74,0.37h-3.33
		c-2.59,0-5.18,0.37-7.39,1.48c-2.22,1.11-4.07,2.59-6.29,4.81v32.91c0,0.74-0.37,1.48-1.48,1.48
		C728.34,360.26,726.49,359.9,726.49,359.9z M757.17,359.9c-0.74,0-1.48-0.37-1.48-1.48v-63.59c0-0.74,0.37-1.48,1.48-1.48h2.59
		c0.74,0,1.48,0.37,1.48,1.48v39.93l21.44-19.23c0.74-0.74,1.48-0.74,2.22-0.74h3.33c0.74,0,1.11,0.37,1.11,0.74
		c0,0.37-0.37,0.74-1.11,1.48l-21.81,19.23l23.66,21.81c0.37,0.37,0.74,0.74,0.74,1.11c0,0.74-0.37,0.74-1.11,0.74h-3.7
		c-0.74,0-1.48-0.37-1.85-0.74l-22.92-21.07v20.7c0,0.74-0.37,1.48-1.48,1.48L757.17,359.9z"/>
</g>
</svg>
