<?xml version="1.0" encoding="utf-8"?>
<!-- Generator: Adobe Illustrator 26.0.3, SVG Export Plug-In . SVG Version: 6.00 Build 0)  -->
<svg version="1.0" id="katman_1" xmlns="http://www.w3.org/2000/svg" xmlns:xlink="http://www.w3.org/1999/xlink" x="0px" y="0px"
	 viewBox="0 0 600 450" style="enable-background:new 0 0 600 450;" xml:space="preserve">
<style type="text/css">
	.st0{fill:#87BD26;}
	.st1{fill:#0E0B0B;}
</style>
<g>
	<path class="st0" d="M493.7,254.3c0-4.6,2.8-8.8,7.1-10.6c4.3-1.8,9.2-0.8,12.5,2.5c3.3,3.3,4.3,8.2,2.5,12.5
		c-1.8,4.3-6,7.1-10.6,7.1C498.8,265.8,493.7,260.7,493.7,254.3"/>
	<path class="st1" d="M127.4,223.9c0.4-5.7-1-11.4-4.2-16.2c-3.2-3.7-7.9-5.6-12.8-5.3h-6.1V247h4.7c5.3,0.4,10.5-1.7,14-5.7
		C126.3,236.1,127.9,230,127.4,223.9 M149.2,223.2c0,13.3-3.6,23.5-10.7,30.6s-17.1,10.8-30,10.8H83.4v-79.4h26.8
		c12.4,0,22.1,3.3,28.8,9.8C145.8,201.5,149.2,210.9,149.2,223.2"/>
	<polygon class="st1" points="218.7,264.6 238.6,264.6 238.6,184.8 218.7,184.8 	"/>
	<path class="st1" d="M266.7,234.8c-0.2,4,0.5,7.9,2,11.6c1.2,2.6,3.8,4.2,6.7,4c2.8,0.2,5.4-1.4,6.6-4c1.5-3.7,2.1-7.7,1.9-11.6
		c0.2-3.9-0.4-7.8-1.9-11.4c-1.3-2.4-3.9-3.9-6.6-3.9c-2.7,0-5.3,1.5-6.6,3.8C267.1,227,266.4,230.9,266.7,234.8 M304.1,234.8
		c0.5,8.3-2.2,16.4-7.6,22.7c-5.6,5.6-13.4,8.6-21.4,8.1c-7.9,0.4-15.5-2.7-21-8.3c-10.3-13.2-10.4-31.7-0.2-45
		c5.7-5.6,13.5-8.5,21.4-8c5.3-0.1,10.5,1.2,15.1,3.7c4.3,2.5,7.9,6.2,10.1,10.6C303,223.7,304.2,229.2,304.1,234.8"/>
	<polygon class="st1" points="312.1,264.6 332,264.6 332,205.3 312.1,205.3 	"/>
	<polygon class="st1" points="312.1,198.2 332,198.2 332,184.8 312.1,184.8 	"/>
	<path class="st1" d="M372.5,249.5c3.3-0.1,6.6-0.8,9.6-2v14.9c-2.5,1.1-5,2-7.7,2.5c-2.8,0.5-5.7,0.8-8.5,0.8
		c-5.3,0.5-10.6-1.3-14.5-5.1c-3.3-4.5-4.9-10-4.4-15.5v-24.4h-7v-15.3h7v-15.1l20.1-3.5v18.6h12.7v15.3H367v23.1
		C367,247.5,368.8,249.4,372.5,249.5 M418.7,249.5c3.3-0.1,6.6-0.8,9.6-2v14.9c-2.5,1.1-5,2-7.7,2.5c-2.8,0.5-5.7,0.8-8.5,0.8
		c-5.3,0.5-10.6-1.3-14.5-5.1c-3.3-4.5-4.9-10-4.4-15.5v-24.4h-7v-15.3h7V190l20.1-3.3v18.6H426v15.3h-12.7v23.1
		C413.3,247.5,415.1,249.4,418.7,249.5 M453.5,227.6c0-2.6,1-5.2,2.8-7.1c1.6-1.5,3.7-2.3,5.9-2.3c2.3-0.1,4.6,0.8,6.1,2.6
		c1.6,1.9,2.4,4.4,2.4,6.8H453.5z M481.7,211.3c-5.5-4.9-12.8-7.5-20.2-7c-7.9-0.5-15.6,2.4-21.1,8c-4.9,5.3-7.4,13-7.4,23
		c-0.5,8.2,2.4,16.4,8,22.4c6.1,5.5,14.2,8.4,22.4,7.9c4,0.1,8-0.3,11.9-0.9c3.4-0.6,6.6-1.8,9.6-3.4l-3.1-13.3
		c-5.1,2.2-10.6,3.2-16.1,3.1c-3.3,0.2-6.5-0.8-9.1-2.8c-2.3-2-3.6-4.8-3.5-7.8h35.7v-9.1C489.3,224,486.7,216.7,481.7,211.3
		 M175.7,227.6c0-2.6,1-5.2,2.8-7.1c1.6-1.5,3.7-2.3,5.9-2.3c2.3-0.1,4.6,0.8,6.1,2.6c1.6,1.9,2.4,4.4,2.4,6.8H175.7z M203.8,211.3
		c-5.5-4.9-12.8-7.5-20.2-7c-7.9-0.5-15.6,2.4-21.1,8c-4.9,5.3-7.4,13-7.4,23c-0.5,8.2,2.4,16.4,8,22.4c6.1,5.5,14.2,8.4,22.4,7.9
		c4,0.1,8-0.3,11.9-0.9c3.4-0.6,6.6-1.8,9.6-3.4L204,248c-5.1,2.2-10.6,3.2-16.1,3.1c-3.3,0.2-6.5-0.8-9.1-2.8
		c-2.3-2-3.6-4.8-3.5-7.8h35.7v-9.1C211.4,224,208.9,216.7,203.8,211.3"/>
</g>
</svg>
