<?xml version="1.0" encoding="utf-8"?>
<!-- Generator: Adobe Illustrator 26.0.3, SVG Export Plug-In . SVG Version: 6.00 Build 0)  -->
<svg version="1.0" id="Layer_1" xmlns="http://www.w3.org/2000/svg" xmlns:xlink="http://www.w3.org/1999/xlink" x="0px" y="0px"
	 viewBox="0 0 757.2 559.3" style="enable-background:new 0 0 757.2 559.3;" xml:space="preserve">
<style type="text/css">
	.st0{fill:#00AECF;}
	.st1{fill:#FF555F;}
	.st2{fill:#073262;}
</style>
<g id="Layer_1-2">
	<g id="Group_3">
		<g id="Group_2">
			<g id="Group_1">
				<path id="Path_1" class="st0" d="M199,500.3c2.4,5,7.4,8.2,13,8.3c8.2,0,14.7-7.1,14.7-15.9v-0.6l-0.2-0.1
					c-4.4,4.6-10.6,7.3-17,7.4c-14,0-25.4-13-25.4-28.9s11.4-28.9,25.4-28.9c6.5,0.1,12.6,2.8,17,7.5l0.2-0.1v-5.9h13.1v49.6
					c0,15.7-11.6,28.3-27.2,28.3c-10.2,0.1-19.6-5.3-24.6-14.1L199,500.3z M212.4,487.1c8.3,0,15.2-7.4,15.2-16.6
					s-6.9-16.6-15.2-16.6s-15.1,7.4-15.1,16.6S204.2,487.1,212.4,487.1z"/>
				<path id="Path_2" class="st0" d="M285.6,481.7l9.1,9c-11.2,11.4-29.6,11.6-41,0.4c-5.5-5.4-8.7-12.9-8.7-20.6
					c-0.2-15.5,12.2-28.3,27.7-28.5c15.3-0.2,28,11.8,28.5,27.2c0,0.5,0,0.9,0,1.4c0.1,1.1,0,2.2-0.2,3.3h-42.9
					c0,6.1,7.1,13.2,15.3,13.2C278,486.9,282.4,485,285.6,481.7z M287.1,462.9l0.1-0.2c-2.6-5.4-8-8.8-14-9c-6.2,0-11,3.4-14.1,9
					l0.1,0.2H287.1z"/>
				<path id="Path_3" class="st0" d="M319.9,470.5v27.4h-13.1v-54.7h13.1v6.7l0.2,0.1c4-5.2,10.1-8.2,16.6-8.3
					c23.4,0,24,21.3,24,27.8v28.4h-13.1v-27.4c0-6.5-0.1-16.6-13.7-16.6C326.2,453.9,319.9,461.2,319.9,470.5z"/>
				<path id="Path_4" class="st0" d="M397.4,499.4c-6.5,0-12.7-2.7-17.1-7.5l-0.2,0.1v27.5H367v-76.4h13.1v5.7l0.2,0.1
					c4.5-4.6,10.6-7.3,17.1-7.3c14,0,25.4,12.9,25.4,28.9S411.4,499.4,397.4,499.4z M394.6,453.9c-8.4,0-15.2,7.4-15.2,16.5
					s6.8,16.6,15.2,16.6c8.2,0,15.1-7.4,15.1-16.6S402.8,453.9,394.6,453.9L394.6,453.9z"/>
				<path id="Path_5" class="st0" d="M452.6,441.6c6.5,0.1,12.6,2.8,17,7.5l0.2-0.1v-5.9h13.1v54.7h-13.1v-5.6l-0.2-0.2
					c-4.4,4.6-10.6,7.3-17,7.4c-14,0-25.4-12.9-25.4-28.9S438.6,441.6,452.6,441.6z M455.4,487c8.3,0,15.1-7.2,15.1-16.5
					s-6.8-16.6-15.1-16.6s-15.1,7.4-15.1,16.6S447.2,487,455.4,487L455.4,487z"/>
				<path id="Path_6" class="st0" d="M537.6,490.7c-11.2,11.4-29.5,11.6-40.9,0.4c-11.4-11.2-11.6-29.5-0.4-40.9
					c11.2-11.4,29.5-11.6,40.8-0.4l0.4,0.4l-9.2,8.6c-2.9-3.2-7.1-5-11.5-5c-9.1,0.3-16.3,8-16,17.1c0.3,8.7,7.3,15.7,16,16
					c4.4,0,8.7-1.9,11.7-5.2L537.6,490.7z"/>
				<path id="Path_7" class="st0" d="M563.9,455.7v42.1h-13.1v-42.1h-9.1v-12.6h9.1v-24.6h13.1v24.6h9.1v12.6H563.9z"/>
			</g>
		</g>
		<path id="Path_8" class="st1" d="M508.2,128.3l-65.4,45.3L378.6,129l-64.3,44.7L249,128.3l129.6-90L508.2,128.3z"/>
		<path id="Path_9" class="st0" d="M314.3,263v-89.3L249,128.3v180l129.6,90v-90.6L314.3,263z"/>
		<path id="Path_10" class="st0" d="M378.6,218.2v89.4l64.5-44.5L378.6,218.2z"/>
		<path id="Path_11" class="st2" d="M378.6,398.3l129.6-90v-90l-129.6,89.3V398.3z"/>
		<path id="Path_12" class="st1" d="M443.1,263.2l-64.5-44.9l64.2-44.7l65.4,44.7L443.1,263.2z"/>
	</g>
</g>
</svg>
