<svg width="199" height="69" viewBox="0 0 199 69" fill="none" xmlns="http://www.w3.org/2000/svg">
<path d="M198.8 0H0V67.9H198.8V0Z" fill="white"/>
<path d="M198.4 0.599991V67.9H0.599998V0.599991H198.4ZM198.9 0H0V68.4H198.8L198.9 0Z" fill="#8C8E90"/>
<path d="M35.4004 59.3995H31.9004V31.7995H41.4004C43.6004 31.6995 45.8004 32.5995 47.4004 34.0995C49.0004 35.6995 50.0004 37.7996 50.0004 39.9996C50.0004 42.1996 49.1004 44.3995 47.4004 45.8995C45.8004 47.4995 43.6004 48.1996 41.4004 48.1996H35.4004C35.4004 48.2996 35.4004 59.3995 35.4004 59.3995ZM35.4004 44.8995H41.3004C42.7004 44.9995 44.0004 44.3995 44.9004 43.3995C45.8004 42.4995 46.2004 41.2996 46.3004 39.9996C46.3004 38.7996 45.8004 37.5996 44.9004 36.6996C44.0004 35.6996 42.7004 35.0995 41.3004 35.0995H35.4004V44.8995Z" fill="#8C8E90"/>
<path d="M58.5991 60.0002C56.6991 60.1002 54.8991 59.4002 53.5991 58.3002C52.1991 57.2002 51.4991 55.5002 51.4991 53.7002C51.3991 51.8002 52.3991 50.0002 53.8991 48.8002C55.5991 47.6002 57.6991 47.0002 59.7991 47.1002C61.5991 47.0002 63.2991 47.4002 64.9991 48.3002V47.7002C65.0991 46.5002 64.4991 45.2002 63.5991 44.3002C62.5991 43.4002 61.3991 43.1002 60.0991 43.1002C59.0991 43.1002 58.0991 43.3002 57.2991 43.8002C56.4991 44.2002 55.8991 45.0002 55.5991 45.9002L52.2991 44.5002C52.8991 43.3002 53.7991 42.2002 54.8991 41.4002C56.3991 40.3002 58.1991 39.8002 60.0991 39.9002C62.2991 39.8002 64.4991 40.5002 66.0991 42.0002C67.7991 43.6002 68.6991 45.7002 68.4991 48.0002V59.5002H65.0991V56.8002H64.8991C63.4991 58.8002 61.0991 60.0002 58.5991 60.0002ZM59.1991 56.7002C60.6991 56.7002 62.0991 56.1002 63.1991 55.1002C64.2991 54.2002 64.9991 52.7002 64.9991 51.2002C63.6991 50.3002 62.0991 49.9002 60.4991 50.0002C59.0991 49.9002 57.6991 50.2002 56.5991 51.1002C55.6991 51.7002 55.2991 52.7002 55.2991 53.8002C55.2991 54.7002 55.6991 55.5002 56.4991 56.0002C57.2991 56.4002 58.1991 56.7002 59.1991 56.7002Z" fill="#8C8E90"/>
<path d="M75.3992 40.3V43.4H75.5992C75.9992 42.3 76.7992 41.4 77.8992 40.8C78.9992 40.2 80.2992 39.9 81.5992 39.9C81.9992 39.8 82.4992 39.8 82.7992 39.9V43.3C82.2992 43.2 81.8992 43.2 81.3992 43.3C79.8992 43.2 78.3992 43.8 77.2992 44.8C76.1992 45.9 75.5992 47.4 75.6992 48.9V59.1H72.1992V40.3H75.3992ZM94.7992 59.3C93.0992 59.5 91.3992 58.9 90.2992 57.7C89.0992 56.5 88.4992 54.8 88.6992 53.2V43.4H85.2992V40.2H88.5992V34.5H92.0992V40.3H96.6992V43.5H92.0992V53C92.0992 55.1 92.9992 56.1 94.6992 56.1C95.2992 56.1 95.7992 56 96.2992 55.8L97.4992 58.9C96.6992 59.2 95.6992 59.3 94.7992 59.3Z" fill="#8C8E90"/>
<path d="M103.7 40.4004V43.0004H103.9C104.5 42.1004 105.3 41.3004 106.4 40.7004C107.5 40.1004 108.7 39.8004 109.9 39.8004C112 39.7004 113.9 40.5004 115.4 42.0004C116.7 43.6004 117.4 45.7004 117.3 47.8004V59.4004H113.7V48.4004C113.7 44.9004 112.1 43.2004 109 43.2004C107.6 43.2004 106.2 43.8004 105.3 44.9004C104.4 46.1004 103.9 47.5004 103.9 49.0004V59.5004H100.4V40.6004L103.7 40.4004Z" fill="#8C8E90"/>
<path d="M130.3 60C127.7 60.1 125.3 59.1 123.5 57.1C121.7 55.1 120.8 52.6 120.9 50.1C120.8 47.5 121.8 44.9 123.5 43.1C125.1 41.1 127.5 39.9 130 40C132.5 39.9 134.9 40.9 136.5 42.7C138.2 44.8 139.2 47.5 138.9 50.2V50.8H124.4C124.4 52.5 125.1 54.1 126.3 55.3C127.4 56.4 128.8 56.9 130.3 56.9C132.5 57.1 134.5 55.8 135.3 53.7L138.4 54.9C137.8 56.4 136.8 57.6 135.4 58.6C133.8 59.6 132.1 60 130.3 60ZM135.2 47.7C135.1 46.5 134.6 45.5 133.8 44.6C132.7 43.5 131.3 43 129.8 43.1C128.6 43.1 127.4 43.5 126.5 44.3C125.5 45.2 124.8 46.3 124.5 47.6H135.2V47.7Z" fill="#8C8E90"/>
<path d="M145.699 59.3998H142.199V40.2998H145.599V43.3998H145.799C146.199 42.2998 146.999 41.3998 147.999 40.7998C148.899 40.1998 150.099 39.7998 151.199 39.7998C152.099 39.7998 152.999 39.9998 153.899 40.2998L152.499 43.6998C151.899 43.4998 151.299 43.3998 150.599 43.4998C149.399 43.4998 147.999 44.0998 147.199 45.0998C146.099 46.1998 145.599 47.6998 145.699 49.1998V59.3998Z" fill="#8C8E90"/>
<path d="M40.3004 25.5003C37.2004 25.7003 34.1004 24.1003 32.6004 21.4003C31.0004 18.7003 31.0004 15.4003 32.6004 12.7003C34.2004 10.0003 37.2004 8.50032 40.3004 8.60032C42.5004 8.50032 44.6004 9.40033 46.2004 10.9003L44.6004 12.5003C43.5004 11.4003 42.0004 10.9003 40.5004 10.9003C37.1004 10.9003 34.3004 13.6003 34.3004 17.1003C34.3004 20.5003 37.0004 23.3003 40.5004 23.3003C42.1004 23.4003 43.7004 22.7003 44.8004 21.6003C45.5004 20.8003 46.0004 19.8003 46.0004 18.7003H40.3004V16.3003H48.1004C48.2004 16.8003 48.2004 17.3003 48.2004 17.9003C48.3004 19.9003 47.5004 21.8003 46.1004 23.3003C44.7004 24.7003 42.5004 25.6003 40.3004 25.5003Z" fill="#4094D1"/>
<path d="M60.4999 19.9004C60.4999 22.2004 59.1999 24.2004 57.0999 25.1004C54.9999 26.0004 52.5999 25.5004 50.9999 23.9004C49.3999 22.3004 48.8999 19.9004 49.7999 17.8004C50.5999 15.7004 52.6999 14.4004 54.9999 14.4004C56.4999 14.4004 57.8999 15.0004 58.8999 16.0004C59.8999 17.0004 60.4999 18.4004 60.4999 19.9004ZM58.0999 19.9004C57.9999 18.2004 56.4999 16.9004 54.7999 17.0004C53.0999 17.1004 51.6999 18.5004 51.7999 20.2004C51.8999 21.9004 53.1999 23.3004 54.8999 23.3004C55.7999 23.3004 56.5999 22.9004 57.1999 22.3004C57.7999 21.5004 58.0999 20.7004 58.0999 19.9004Z" fill="#E94638"/>
<path d="M73.1991 19.9004C73.1991 22.2004 71.8991 24.2004 69.7991 25.1004C67.6991 26.0004 65.2991 25.5004 63.6991 23.9004C62.0991 22.3004 61.5991 19.9004 62.4991 17.8004C63.3991 15.7004 65.3991 14.4004 67.6991 14.4004C69.1991 14.4004 70.5991 15.0004 71.5991 16.0004C72.5991 17.0004 73.1991 18.4004 73.1991 19.9004ZM70.7991 19.9004C70.6991 18.2004 69.1991 16.9004 67.4991 17.0004C65.7991 17.1004 64.3991 18.5004 64.4991 20.2004C64.5991 21.9004 65.8991 23.3004 67.5991 23.3004C68.4991 23.3004 69.2991 22.9004 69.8991 22.3004C70.4991 21.7004 70.7991 20.7004 70.7991 19.9004Z" fill="#FCC111"/>
<path d="M84.8004 14.5998V24.0998C85.0004 25.4998 84.6004 26.9998 83.6004 28.0998C82.6004 29.1998 81.1004 29.6998 79.6004 29.6998C77.4004 29.6998 75.5004 28.4998 74.7004 26.5998L76.8004 25.6998C77.2004 26.7998 78.4004 27.5998 79.6004 27.5998C80.5004 27.6998 81.3004 27.3998 81.9004 26.6998C82.5004 26.0998 82.8004 25.2998 82.6004 24.4998V23.7998C81.8004 24.4998 80.7004 24.8998 79.6004 24.8998C76.6004 24.6998 74.4004 22.3998 74.4004 19.5998C74.4004 16.7998 76.7004 14.3998 79.6004 14.2998C80.7004 14.2998 81.8004 14.6998 82.5004 15.4998V14.5998H84.8004ZM82.7004 19.5998C82.8004 18.7998 82.5004 17.9998 81.9004 17.3998C81.3004 16.7998 80.5004 16.4998 79.7004 16.3998C78.8004 16.4998 78.0004 16.7998 77.4004 17.3998C76.7004 17.8998 76.4004 18.7998 76.4004 19.5998C76.3004 20.3998 76.6004 21.1998 77.3004 21.7998C77.9004 22.3998 78.7004 22.6998 79.6004 22.6998C80.5004 22.5998 81.2004 22.2998 81.8004 21.6998C82.4004 21.0998 82.6004 20.2998 82.5004 19.4998C82.5004 19.5998 82.7004 19.5998 82.7004 19.5998Z" fill="#4094D1"/>
<path d="M89.1 9V25.5H86.5V9H89.1Z" fill="#41AD56"/>
<path d="M98.9005 21.7998L100.601 22.9998C99.4005 24.9998 97.0005 25.8998 94.8005 25.1998C92.6005 24.4998 91.1005 22.2998 91.1005 19.8998C91.0005 18.4998 91.5005 16.9998 92.4005 15.9998C93.3005 14.8998 94.7005 14.2998 96.0005 14.2998C98.0005 14.3998 99.8005 15.7998 100.401 17.7998L100.601 18.3998L93.7005 21.4998C94.1005 22.5998 95.1005 23.1998 96.2005 23.1998C97.4005 23.2998 98.4005 22.6998 98.9005 21.7998ZM93.5005 19.5998L98.1005 17.4998C97.7005 16.6998 97.0005 16.2998 96.1005 16.2998C95.4005 16.3998 94.6005 16.7998 94.1005 17.3998C93.7005 18.0998 93.4005 18.8998 93.5005 19.5998Z" fill="#E94638"/>
<path d="M18.1 0H0V68.4H18.1V0Z" fill="#E94638"/>
<path d="M12.2008 57.4996V58.3996H5.80078V55.8996C5.80078 55.2996 6.00078 54.6996 6.40078 54.2996C6.80078 53.8996 7.30078 53.5996 7.80078 53.5996C8.40078 53.5996 8.80078 53.7996 9.20078 54.2996C9.60078 54.6996 9.80078 55.2996 9.80078 55.8996V57.4996H12.2008ZM8.80078 57.4996V55.8996C8.80078 55.4996 8.70078 55.1996 8.50078 54.9996C8.30078 54.7996 8.00078 54.5996 7.80078 54.5996C7.60078 54.5996 7.20078 54.6996 7.00078 54.9996C6.80078 55.1996 6.60078 55.5996 6.70078 55.8996V57.4996H8.80078Z" fill="white"/>
<path d="M12.2008 50.8998H5.80078V48.5998C5.80078 47.9998 6.00078 47.4998 6.40078 47.0998C6.80078 46.6998 7.30078 46.4998 7.80078 46.4998C8.20078 46.4998 8.70078 46.6998 9.00078 46.9998C9.30078 47.2998 9.60078 47.6998 9.60078 48.1998L12.2008 46.2998V47.3998L9.60078 49.2998V50.2998H12.2008V50.8998ZM8.80078 49.9998V48.5998C8.80078 48.2998 8.70078 47.8998 8.50078 47.6998C8.30078 47.4998 8.00078 47.2998 7.70078 47.2998C7.50078 47.2998 7.10078 47.3998 6.90078 47.5998C6.70078 47.7998 6.50078 48.1998 6.60078 48.4998V49.9998H8.80078Z" fill="white"/>
<path d="M6.60039 39.7998V42.5998H8.60039V40.0998H9.40039V42.6998H11.4004V39.7998H12.2004V43.4998H5.90039V39.7998H6.60039Z" fill="white"/>
<path d="M12.7008 36.5998H5.30078V35.6998L9.70078 33.3998L5.30078 31.0998V30.2998H12.7008V31.0998H8.40078H7.10078L11.2008 33.1998V33.6998L7.10078 35.6998H8.40078H12.7008V36.5998Z" fill="white"/>
<path d="M12.7008 26.5H5.30078V25.5H12.7008V26.5Z" fill="white"/>
<path d="M6.60039 18.5V21.4H8.60039V18.9H9.40039V21.4H11.4004V18.5H12.2004V22.3H5.90039V18.5H6.60039Z" fill="white"/>
<path d="M12.7004 14.9002H5.40039V12.5002C5.40039 11.9002 5.60039 11.4002 6.00039 11.0002C6.40039 10.6002 7.00039 10.4002 7.60039 10.4002C8.20039 10.4002 8.60039 10.6002 9.00039 10.9002C9.40039 11.2002 9.60039 11.6002 9.70039 12.1002L12.8004 10.2002V11.3002L9.90039 13.2002V14.1002H13.0004L12.7004 14.9002ZM8.70039 13.9002V12.5002C8.70039 12.2002 8.60039 11.8002 8.30039 11.6002C8.10039 11.4002 7.70039 11.2002 7.40039 11.2002C7.10039 11.2002 6.80039 11.3002 6.50039 11.5002C6.30039 11.7002 6.10039 12.1002 6.10039 12.4002V13.9002H8.70039Z" fill="white"/>
</svg>
