<svg width="200" height="69" viewBox="0 0 200 69" fill="none" xmlns="http://www.w3.org/2000/svg">
<mask id="mask0_617_124" style="mask-type:luminance" maskUnits="userSpaceOnUse" x="0" y="0" width="200" height="69">
<path d="M199.3 0H0V68.5H199.3V0Z" fill="white"/>
</mask>
<g mask="url(#mask0_617_124)">
<path d="M199.2 68.4H0V0H199.2V68.4Z" fill="white"/>
</g>
<mask id="mask1_617_124" style="mask-type:luminance" maskUnits="userSpaceOnUse" x="0" y="0" width="200" height="69">
<path d="M199.3 0H0V68.5H199.3V0Z" fill="white"/>
</mask>
<g mask="url(#mask1_617_124)">
<path d="M24.9 68.4H0V0H24.9V68.4Z" fill="#004226"/>
</g>
<path d="M10.0004 47.4C9.6004 47.4 9.4004 47.5 9.1004 47.6C8.9004 47.7 8.6004 47.8 8.5004 48C8.3004 48.2 8.2004 48.4 8.1004 48.7C8.0004 48.9 8.0004 49.2 8.0004 49.5C8.0004 49.7 8.1004 50 8.1004 50.2C8.2004 50.4 8.30039 50.7 8.40039 50.9C8.50039 51.1 8.60042 51.3 8.80042 51.6C9.00042 51.8 9.20039 52 9.40039 52.2H8.0004C7.6004 51.8 7.40041 51.5 7.20041 51C7.00041 50.6 6.90039 50 6.90039 49.4C6.90039 49 7.0004 48.5 7.1004 48.1C7.2004 47.7 7.40041 47.4 7.70041 47C7.90041 46.7 8.3004 46.5 8.6004 46.3C9.0004 46.1 9.40039 46.1 9.90039 46.1C10.3004 46.1 10.8004 46.2 11.1004 46.2C11.5004 46.3 11.8004 46.4 12.2004 46.7C12.5004 46.9 12.8004 47.2 13.1004 47.5C13.4004 47.8 13.7004 48.2 14.0004 48.6C14.4004 49.2 14.7004 49.6 15.0004 49.9C15.2004 50.3 15.5004 50.5 15.7004 50.7C15.9004 50.9 16.2004 51.1 16.4004 51.1C16.6004 51.2 16.9004 51.2 17.2004 51.2V45.5H18.4004V52.5H17.8004C17.3004 52.5 16.9004 52.4 16.5004 52.3C16.1004 52.2 15.8004 52.1 15.4004 51.8C15.0004 51.5 14.7004 51.2 14.4004 50.9C14.1004 50.5 13.7004 50 13.3004 49.5C13.0004 49.1 12.7004 48.8 12.4004 48.4C12.2004 48.2 11.8004 47.9 11.6004 47.7C11.4004 47.5 11.0004 47.4 10.8004 47.3C10.7004 47.4 10.4004 47.4 10.0004 47.4Z" fill="white"/>
<path d="M12.8004 36.8004C9.60041 36.8004 7.90039 37.5004 7.90039 39.1004C7.90039 40.7004 9.50042 41.5004 12.8004 41.5004C15.9004 41.5004 17.4004 40.7004 17.4004 39.1004C17.5004 37.6004 16.0004 36.8004 12.8004 36.8004ZM12.7004 35.4004C13.6004 35.4004 14.5004 35.5004 15.2004 35.6004C15.9004 35.8004 16.6004 36.0004 17.1004 36.3004C17.6004 36.6004 18.0004 37.0004 18.2004 37.5004C18.4004 38.0004 18.6004 38.5004 18.6004 39.1004C18.6004 39.7004 18.5004 40.2004 18.2004 40.6004C18.0004 41.0004 17.6004 41.4004 17.1004 41.7004C16.6004 42.0004 16.0004 42.3004 15.4004 42.4004C14.7004 42.6004 13.9004 42.6004 13.0004 42.6004C12.0004 42.6004 11.1004 42.5004 10.4004 42.4004C9.70039 42.2004 9.0004 42.0004 8.5004 41.7004C8.0004 41.4004 7.60042 41.0004 7.30042 40.5004C7.10042 40.0004 6.90039 39.5004 6.90039 38.9004C6.90039 36.7004 8.80041 35.4004 12.7004 35.4004Z" fill="white"/>
<path d="M10.0004 27.5C9.6004 27.5 9.4004 27.6 9.1004 27.7C8.9004 27.8 8.6004 27.9 8.5004 28.1C8.3004 28.3 8.2004 28.5 8.1004 28.8C8.0004 29 8.0004 29.3 8.0004 29.6C8.0004 29.8 8.1004 30.1 8.1004 30.3C8.2004 30.5 8.30039 30.8 8.40039 31C8.50039 31.2 8.60042 31.4 8.80042 31.7C9.00042 31.9 9.20039 32.1 9.40039 32.3H8.0004C7.6004 31.9 7.40041 31.6 7.20041 31.1C7.00041 30.7 6.90039 30.1 6.90039 29.5C6.90039 29.1 7.0004 28.6 7.1004 28.2C7.2004 27.8 7.40041 27.5 7.70041 27.1C7.90041 26.8 8.3004 26.6 8.6004 26.4C9.0004 26.2 9.40039 26.2 9.90039 26.2C10.3004 26.2 10.8004 26.3 11.1004 26.3C11.5004 26.4 11.8004 26.5 12.2004 26.7C12.5004 26.9 12.8004 27.2 13.1004 27.5C13.4004 27.8 13.7004 28.2 14.0004 28.6C14.4004 29.2 14.7004 29.6 15.0004 29.9C15.2004 30.3 15.5004 30.5 15.7004 30.7C15.9004 30.9 16.2004 31.1 16.4004 31.1C16.6004 31.2 16.9004 31.2 17.2004 31.2V25.5H18.4004V32.5H17.8004C17.3004 32.5 16.9004 32.4 16.5004 32.3C16.1004 32.2 15.8004 32.1 15.4004 31.8C15.1004 31.6 14.7004 31.2 14.4004 30.9C14.1004 30.6 13.7004 30 13.3004 29.5C13.0004 29.1 12.7004 28.8 12.4004 28.4C12.2004 28.2 11.8004 27.9 11.6004 27.7C11.4004 27.5 11.0004 27.4 10.8004 27.3C10.7004 27.5 10.4004 27.5 10.0004 27.5Z" fill="white"/>
<path d="M18.4004 18.0004V19.3004H8.6004C8.7004 19.4004 8.8004 19.5004 9.0004 19.7004C9.1004 19.9004 9.20039 20.1004 9.40039 20.3004C9.50039 20.5004 9.60042 20.8004 9.80042 21.0004C10.0004 21.2004 10.0004 21.5004 10.0004 21.8004H8.70041C8.60041 21.5004 8.50039 21.2004 8.40039 20.9004C8.30039 20.6004 8.1004 20.3004 8.0004 20.0004C7.8004 19.7004 7.7004 19.4004 7.5004 19.1004C7.3004 18.8004 7.10039 18.6004 6.90039 18.4004V17.9004H18.4004V18.0004Z" fill="white"/>
<path d="M93.1996 18.0998H91.2996V22.3998H90.0996V18.0998H89.1996V16.9998H90.0996V16.2998C90.0996 15.6998 90.2996 15.2998 90.6996 14.8998C91.0996 14.4998 91.4996 14.2998 92.0996 14.2998C92.1996 14.2998 92.3996 14.2998 92.4996 14.2998C92.5996 14.2998 92.6996 14.3998 92.7996 14.3998V15.4998C92.6996 15.4998 92.6996 15.3998 92.5996 15.3998C92.4996 15.2998 92.3996 15.2998 92.1996 15.2998C91.9996 15.2998 91.6996 15.3998 91.5996 15.4998C91.4996 15.6998 91.3996 15.8998 91.3996 16.1998V16.7998H93.2996V15.7998L94.4996 15.3998V16.9998H95.7996V18.0998H94.3996V20.5998C94.3996 20.8998 94.4996 21.1998 94.5996 21.2998C94.6996 21.3998 94.8996 21.4998 95.1996 21.4998C95.2996 21.4998 95.3996 21.4998 95.3996 21.3998C95.4996 21.2998 95.5996 21.2998 95.5996 21.2998V22.3998C95.4996 22.4998 95.3996 22.4998 95.1996 22.4998C94.9996 22.5998 94.7996 22.5998 94.5996 22.5998C93.9996 22.5998 93.6996 22.4998 93.3996 22.1998C93.1996 21.8998 92.9996 21.4998 92.9996 20.8998L93.1996 18.0998ZM84.7996 19.7998C84.7996 20.3998 84.8996 20.7998 85.1996 21.0998C85.3996 21.3998 85.7996 21.4998 86.2996 21.4998C86.7996 21.4998 87.0996 21.3998 87.3996 21.0998C87.6996 20.7998 87.7996 20.3998 87.7996 19.7998C87.7996 19.1998 87.6996 18.7998 87.3996 18.4998C87.1996 18.1998 86.7996 18.0998 86.2996 18.0998C85.7996 18.0998 85.4996 18.1998 85.1996 18.4998C84.9996 18.6998 84.7996 19.0998 84.7996 19.7998ZM83.4996 19.7998C83.4996 18.8998 83.6996 18.1998 84.1996 17.6998C84.6996 17.1998 85.3996 16.9998 86.2996 16.9998C87.0996 16.9998 87.7996 17.1998 88.2996 17.6998C88.7996 18.1998 88.9996 18.8998 88.9996 19.6998C88.9996 20.5998 88.7996 21.2998 88.2996 21.7998C87.7996 22.2998 87.0996 22.4998 86.1996 22.4998C85.3996 22.4998 84.6996 22.2998 84.1996 21.7998C83.6996 21.2998 83.4996 20.5998 83.4996 19.7998ZM80.6996 18.3998C80.6996 18.5998 80.7996 18.6998 80.8996 18.7998C80.9996 18.8998 81.2996 18.9998 81.5996 19.1998C82.0996 19.3998 82.4996 19.5998 82.6996 19.8998C82.8996 20.0998 82.9996 20.4998 82.9996 20.7998C82.9996 21.2998 82.7996 21.6998 82.3996 21.9998C81.9996 22.2998 81.4996 22.3998 80.7996 22.3998C80.5996 22.3998 80.2996 22.3998 80.0996 22.2998C79.8996 22.1998 79.5996 22.1998 79.3996 22.0998V20.8998C79.5996 21.0998 79.8996 21.1998 80.0996 21.2998C80.2996 21.3998 80.5996 21.3998 80.7996 21.3998C81.0996 21.3998 81.2996 21.2998 81.3996 21.2998C81.4996 21.1998 81.5996 21.0998 81.5996 20.8998C81.5996 20.6998 81.4996 20.5998 81.3996 20.4998C81.2996 20.3998 80.9996 20.2998 80.5996 20.0998C80.1996 19.8998 79.7996 19.6998 79.5996 19.3998C79.3996 19.1998 79.2996 18.7998 79.2996 18.4998C79.2996 17.9998 79.4996 17.5998 79.8996 17.2998C80.2996 16.9998 80.7996 16.8998 81.3996 16.8998C81.5996 16.8998 81.7996 16.8998 81.9996 16.9998C82.1996 17.0998 82.3996 17.0998 82.5996 17.1998V18.3998C82.3996 18.2998 82.1996 18.1998 81.9996 18.0998C81.7996 17.9998 81.5996 17.9998 81.2996 17.9998C81.0996 17.9998 80.8996 18.0998 80.6996 18.0998C80.6996 18.0998 80.6996 18.2998 80.6996 18.3998ZM74.5996 19.7998C74.5996 20.3998 74.6996 20.7998 74.9996 21.0998C75.1996 21.3998 75.5996 21.4998 76.0996 21.4998C76.5996 21.4998 76.8996 21.3998 77.1996 21.0998C77.4996 20.7998 77.5996 20.3998 77.5996 19.7998C77.5996 19.1998 77.4996 18.7998 77.1996 18.4998C76.9996 18.1998 76.5996 18.0998 76.0996 18.0998C75.5996 18.0998 75.2996 18.1998 74.9996 18.4998C74.6996 18.6998 74.5996 19.0998 74.5996 19.7998ZM73.1996 19.7998C73.1996 18.8998 73.3996 18.1998 73.8996 17.6998C74.3996 17.1998 75.0996 16.9998 75.9996 16.9998C76.7996 16.9998 77.4996 17.1998 77.9996 17.6998C78.4996 18.1998 78.6996 18.8998 78.6996 19.6998C78.6996 20.5998 78.4996 21.2998 77.9996 21.7998C77.4996 22.2998 76.7996 22.4998 75.8996 22.4998C75.0996 22.4998 74.3996 22.2998 73.8996 21.7998C73.4996 21.2998 73.1996 20.5998 73.1996 19.7998ZM72.7996 16.9998C72.8996 16.9998 72.9996 16.9998 72.9996 16.9998C73.0996 16.9998 73.0996 17.0998 73.1996 17.0998V18.3998C73.0996 18.2998 72.9996 18.2998 72.8996 18.2998C72.7996 18.1998 72.5996 18.1998 72.4996 18.1998C72.1996 18.1998 71.8996 18.2998 71.6996 18.5998C71.4996 18.7998 71.3996 19.2998 71.3996 19.7998V22.4998H70.1996V17.0998H71.3996V17.9998C71.4996 17.6998 71.6996 17.4998 71.8996 17.2998C72.0996 16.9998 72.3996 16.9998 72.7996 16.9998ZM67.8996 21.3998C68.0996 21.3998 68.2996 21.2998 68.4996 21.2998C68.6996 21.1998 68.8996 21.0998 69.0996 20.8998V22.0998C68.8996 22.1998 68.6996 22.2998 68.3996 22.2998C68.1996 22.3998 67.7996 22.3998 67.4996 22.3998C66.6996 22.3998 66.0996 22.1998 65.5996 21.6998C65.0996 21.1998 64.8996 20.5998 64.8996 19.7998C64.8996 18.8998 65.0996 18.1998 65.5996 17.6998C66.0996 17.0998 66.7996 16.8998 67.6996 16.8998C67.8996 16.8998 68.1996 16.8998 68.3996 16.9998C68.5996 17.0998 68.7996 17.0998 68.9996 17.1998V18.3998C68.7996 18.2998 68.5996 18.1998 68.3996 18.0998C68.1996 17.9998 67.9996 17.9998 67.7996 17.9998C67.2996 17.9998 66.8996 18.1998 66.5996 18.4998C66.2996 18.7998 66.1996 19.1998 66.1996 19.7998C66.1996 20.3998 66.2996 20.6998 66.5996 20.9998C66.9996 21.2998 67.3996 21.3998 67.8996 21.3998ZM64.0996 16.9998V22.3998H62.8996V16.9998H64.0996ZM62.6996 15.4998C62.6996 15.2998 62.7996 15.0998 62.8996 14.9998C62.9996 14.8998 63.1996 14.7998 63.4996 14.7998C63.6996 14.7998 63.8996 14.8998 64.0996 14.9998C64.2996 15.0998 64.2996 15.2998 64.2996 15.4998C64.2996 15.6998 64.1996 15.8998 64.0996 15.9998C63.9996 16.0998 63.7996 16.1998 63.4996 16.1998C63.2996 16.1998 63.0996 16.0998 62.8996 15.9998C62.6996 15.7998 62.6996 15.5998 62.6996 15.4998ZM61.5996 14.8998V22.3998H60.2996V16.4998L57.9996 22.3998H57.0996L54.6996 16.4998V22.3998H53.5996V14.8998H55.4996L57.5996 20.3998L59.7996 14.8998H61.5996Z" fill="#7C7C7B"/>
<path d="M43.2008 18.3004H37.3008V12.4004H43.2008V18.3004Z" fill="#E95C0C"/>
<path d="M49.8004 18.3004H43.9004V12.4004H49.8004V18.3004Z" fill="#95C121"/>
<path d="M43.2008 24.9004H37.3008V18.9004H43.2008V24.9004Z" fill="#1A9DD9"/>
<path d="M49.8004 24.9004H43.9004V18.9004H49.8004V24.9004Z" fill="#FDC303"/>
<path d="M119.5 19.6002L118.5 16.8002C118.5 16.7002 118.4 16.6002 118.4 16.4002C118.4 16.6002 118.3 16.7002 118.3 16.8002L117.4 19.6002H119.5ZM121.8 22.2002H120.6L120 20.4002H117.3L116.7 22.2002H115.5L118.1 15.2002H119.4L121.8 22.2002Z" fill="#7C7C7B"/>
<path d="M125.999 19.9998V19.3998C125.999 18.9998 125.899 18.7998 125.599 18.4998C125.399 18.2998 125.099 18.0998 124.699 18.0998C124.299 18.0998 123.999 18.2998 123.699 18.5998C123.499 18.8998 123.299 19.2998 123.299 19.8998C123.299 20.3998 123.399 20.7998 123.699 21.0998C123.899 21.3998 124.299 21.4998 124.599 21.4998C124.999 21.4998 125.299 21.3998 125.499 21.0998C125.899 20.7998 125.999 20.3998 125.999 19.9998ZM127.099 22.1998H125.999V21.2998C125.599 21.8998 125.099 22.1998 124.299 22.1998C123.699 22.1998 123.199 21.9998 122.799 21.4998C122.399 21.0998 122.199 20.3998 122.199 19.6998C122.199 18.8998 122.399 18.1998 122.799 17.6998C123.199 17.1998 123.699 16.9998 124.399 16.9998C125.099 16.9998 125.599 17.1998 125.899 17.7998V14.7998H126.999L127.099 22.1998Z" fill="#7C7C7B"/>
<path d="M132.9 17.2998L131 22.2998H129.8L128 17.2998H129.2L130.3 20.7998C130.4 20.9998 130.4 21.2998 130.4 21.4998C130.4 21.2998 130.5 21.0998 130.5 20.8998L131.7 17.3998L132.9 17.2998Z" fill="#7C7C7B"/>
<path d="M136.701 19.3002C136.701 18.9002 136.601 18.6002 136.401 18.4002C136.201 18.2002 136.001 18.1002 135.701 18.1002C135.401 18.1002 135.101 18.2002 134.901 18.5002C134.701 18.7002 134.501 19.1002 134.501 19.4002L136.701 19.3002ZM137.801 20.1002H134.401C134.401 20.5002 134.501 20.9002 134.801 21.2002C135.001 21.4002 135.401 21.6002 135.901 21.6002C136.501 21.6002 136.901 21.4002 137.401 21.1002V22.0002C137.001 22.3002 136.301 22.4002 135.601 22.4002C134.901 22.4002 134.301 22.2002 133.901 21.7002C133.501 21.3002 133.301 20.6002 133.301 19.8002C133.301 19.1002 133.501 18.4002 134.001 17.9002C134.401 17.4002 135.101 17.2002 135.701 17.2002C136.401 17.2002 136.901 17.4002 137.301 17.9002C137.701 18.3002 137.901 19.0002 137.901 19.7002L137.801 20.1002Z" fill="#7C7C7B"/>
<path d="M141.7 18.3996C141.6 18.2996 141.4 18.1996 141.1 18.1996C140.8 18.1996 140.5 18.2996 140.3 18.5996C140.1 18.8996 140 19.2996 140 19.7996V22.1996H138.9V17.1996H140V18.1996C140.1 17.7996 140.3 17.5996 140.5 17.3996C140.7 17.1996 141 17.0996 141.2 17.0996C141.4 17.0996 141.6 17.0996 141.7 17.1996V18.3996Z" fill="#7C7C7B"/>
<path d="M145.5 22.1998C145.3 22.2998 145 22.3998 144.6 22.3998C143.6 22.3998 143.2 21.9998 143.2 20.9998V18.1998H142.4V17.2998H143.2V16.0998L144.3 15.7998V17.2998H145.5V18.1998H144.3V20.6998C144.3 20.9998 144.4 21.1998 144.5 21.2998C144.6 21.3998 144.8 21.4998 145.1 21.4998C145.3 21.4998 145.5 21.3998 145.6 21.2998V22.1998H145.5Z" fill="#7C7C7B"/>
<path d="M147.501 22.1996H146.401V17.1996H147.501V22.1996ZM147.001 16.2996C146.801 16.2996 146.601 16.1996 146.501 16.0996C146.401 15.9996 146.301 15.8996 146.301 15.6996C146.301 15.4996 146.401 15.3996 146.501 15.2996C146.601 15.1996 146.801 15.0996 147.001 15.0996C147.201 15.0996 147.401 15.1996 147.501 15.2996C147.601 15.3996 147.701 15.4996 147.701 15.6996C147.701 15.8996 147.601 15.9996 147.501 16.0996C147.301 16.1996 147.201 16.2996 147.001 16.2996Z" fill="#7C7C7B"/>
<path d="M148.699 22.1002V21.0002C149.099 21.3002 149.599 21.5002 150.099 21.5002C150.799 21.5002 151.099 21.3002 151.099 20.9002C151.099 20.8002 151.099 20.7002 150.999 20.6002C150.899 20.5002 150.899 20.5002 150.799 20.4002C150.699 20.3002 150.599 20.3002 150.399 20.2002C150.299 20.1002 150.099 20.1002 149.999 20.0002C149.799 19.9002 149.599 19.8002 149.399 19.8002C149.199 19.7002 149.099 19.6002 148.999 19.5002C148.899 19.4002 148.799 19.3002 148.799 19.1002C148.699 19.0002 148.699 18.8002 148.699 18.6002C148.699 18.4002 148.799 18.2002 148.899 18.0002C148.999 17.8002 149.099 17.7002 149.299 17.6002C149.499 17.5002 149.699 17.4002 149.899 17.3002C150.099 17.2002 150.399 17.2002 150.599 17.2002C150.999 17.2002 151.499 17.3002 151.799 17.4002V18.4002C151.399 18.2002 151.099 18.0002 150.599 18.0002C150.499 18.0002 150.399 18.0002 150.199 18.1002C150.099 18.1002 149.999 18.2002 149.899 18.2002C149.799 18.3002 149.799 18.3002 149.699 18.4002C149.599 18.5002 149.599 18.5002 149.599 18.6002C149.599 18.7002 149.599 18.8002 149.699 18.8002C149.799 18.8002 149.799 18.9002 149.899 19.0002C149.999 19.1002 150.099 19.1002 150.199 19.1002C150.299 19.2002 150.399 19.2002 150.599 19.2002C150.799 19.3002 150.999 19.4002 151.199 19.4002C151.399 19.5002 151.499 19.6002 151.599 19.7002C151.699 19.8002 151.799 19.9002 151.799 20.1002C151.899 20.2002 151.899 20.4002 151.899 20.7002C151.899 21.0002 151.799 21.2002 151.699 21.4002C151.599 21.6002 151.499 21.8002 151.199 21.9002C150.999 22.0002 150.799 22.1002 150.499 22.1002C150.299 22.2002 149.999 22.2002 149.699 22.2002C149.599 22.4002 149.099 22.3002 148.699 22.1002Z" fill="#7C7C7B"/>
<path d="M154.399 22.1996H153.299V17.1996H154.399V22.1996ZM153.899 16.2996C153.699 16.2996 153.499 16.1996 153.399 16.0996C153.299 15.9996 153.199 15.8996 153.199 15.6996C153.199 15.4996 153.299 15.3996 153.399 15.2996C153.499 15.1996 153.699 15.0996 153.899 15.0996C154.099 15.0996 154.299 15.1996 154.399 15.2996C154.499 15.3996 154.599 15.4996 154.599 15.6996C154.599 15.8996 154.499 15.9996 154.399 16.0996C154.299 16.1996 154.099 16.2996 153.899 16.2996Z" fill="#7C7C7B"/>
<path d="M160.4 22.2002H159.3V19.4002C159.3 18.5002 159 18.0002 158.3 18.0002C157.9 18.0002 157.7 18.1002 157.4 18.4002C157.1 18.7002 157.1 19.0002 157.1 19.4002V22.3002H156V17.3002H157.1V18.1002C157.5 17.5002 158 17.2002 158.7 17.2002C159.3 17.2002 159.6 17.4002 159.9 17.7002C160.2 18.1002 160.3 18.6002 160.3 19.2002V22.2002H160.4Z" fill="#7C7C7B"/>
<path d="M165.2 19.9996V19.3996C165.2 18.9996 165.1 18.7996 164.8 18.4996C164.6 18.2996 164.3 18.0996 163.9 18.0996C163.5 18.0996 163.2 18.2996 162.9 18.5996C162.7 18.8996 162.5 19.2996 162.5 19.8996C162.5 20.3996 162.6 20.7996 162.9 21.0996C163.1 21.3996 163.5 21.4996 163.8 21.4996C164.1 21.4996 164.5 21.3996 164.7 21.0996C165 20.7996 165.2 20.3996 165.2 19.9996ZM166.3 21.8996C166.3 23.6996 165.4 24.5996 163.6 24.5996C163 24.5996 162.4 24.4996 161.9 24.2996V23.1996C162.5 23.4996 163 23.6996 163.5 23.6996C164.7 23.6996 165.3 23.0996 165.3 21.9996V21.3996C164.9 21.9996 164.4 22.2996 163.6 22.2996C163 22.2996 162.5 22.0996 162.1 21.5996C161.7 21.1996 161.5 20.4996 161.5 19.7996C161.5 18.8996 161.7 18.2996 162.1 17.7996C162.5 17.2996 163 17.0996 163.7 17.0996C164.4 17.0996 164.8 17.2996 165.2 17.8996V17.1996H166.3V21.8996Z" fill="#7C7C7B"/>
<path d="M106.099 24.9004H105.199V12.4004H106.099V24.9004Z" fill="#DADADA"/>
<path d="M41.6996 40.1998V47.3998H43.7996C45.1996 47.3998 46.2996 47.0998 46.9996 46.3998C47.6996 45.7998 48.0996 44.7998 48.0996 43.6998C48.0996 41.3998 46.6996 40.2998 43.9996 40.2998H41.6996V40.1998ZM41.6996 49.0998V55.6998H39.5996V38.2998H44.3996C46.2996 38.2998 47.6996 38.6998 48.7996 39.6998C49.7996 40.5998 50.3996 41.8998 50.3996 43.5998C50.3996 45.2998 49.7996 46.5998 48.6996 47.5998C47.5996 48.6998 45.9996 49.1998 44.0996 49.1998L41.6996 49.0998Z" fill="#004226"/>
<path d="M59.1992 49.5L56.1992 49.9C55.2992 50 54.5992 50.3 54.0992 50.6C53.5992 50.9 53.3992 51.5 53.3992 52.3C53.3992 52.9 53.5992 53.4 53.9992 53.8C54.3992 54.2 54.9992 54.4 55.6992 54.4C56.6992 54.4 57.4992 54 58.0992 53.3C58.6992 52.6 59.0992 51.7 59.0992 50.7V49.5H59.1992ZM61.1992 55.7H59.1992V53.8H59.0992C58.1992 55.3 56.9992 56 55.1992 56C53.9992 56 52.9992 55.7 52.2992 55C51.5992 54.3 51.1992 53.4 51.1992 52.4C51.1992 50.1 52.5992 48.7 55.2992 48.4L58.9992 47.9C58.9992 45.8 58.0992 44.7 56.3992 44.7C54.8992 44.7 53.4992 45.2 52.3992 46.3V44.2C53.5992 43.5 54.9992 43 56.5992 43C59.4992 43 60.9992 44.6 60.9992 47.7L61.1992 55.7Z" fill="#004226"/>
<path d="M71.4004 45.2996C71.0004 45.0996 70.5004 44.8996 69.9004 44.8996C69.0004 44.8996 68.3004 45.2996 67.8004 46.0996C67.2004 46.8996 66.9004 47.9996 66.9004 49.3996V55.7996H64.9004V43.2996H66.9004V45.8996H67.0004C67.3004 44.9996 67.7004 44.2996 68.3004 43.7996C68.9004 43.2996 69.5004 43.0996 70.2004 43.0996C70.7004 43.0996 71.1004 43.1996 71.4004 43.2996V45.2996Z" fill="#004226"/>
<path d="M79.2004 55.5996C78.7004 55.7996 78.1004 55.9996 77.3004 55.9996C75.1004 55.9996 74.0004 54.7996 74.0004 52.2996V44.9996H71.9004V43.2996H74.0004V40.1996L76.0004 39.5996V43.2996H79.1004V44.9996H76.0004V51.9996C76.0004 52.7996 76.1004 53.3996 76.4004 53.7996C76.7004 54.1996 77.1004 54.3996 77.8004 54.3996C78.3004 54.3996 78.7004 54.2996 79.1004 53.9996L79.2004 55.5996Z" fill="#004226"/>
<path d="M92.0992 55.7004H90.0992V48.6004C90.0992 46.0004 89.0992 44.6004 87.1992 44.6004C86.1992 44.6004 85.3992 45.0004 84.6992 45.7004C84.0992 46.4004 83.6992 47.4004 83.6992 48.6004V55.7004H81.6992V43.2004H83.6992V45.3004H83.7992C84.6992 43.7004 86.0992 42.9004 87.8992 42.9004C89.2992 42.9004 90.2992 43.3004 90.9992 44.2004C91.6992 45.1004 92.0992 46.4004 92.0992 48.0004V55.7004Z" fill="#004226"/>
<path d="M103.599 48.3C103.599 47.2 103.299 46.2 102.799 45.6C102.199 45 101.499 44.7 100.499 44.7C99.5992 44.7 98.7992 45 98.0992 45.7C97.3992 46.4 96.9992 47.3 96.8992 48.3H103.599ZM105.699 50H96.8992C96.9992 51.4 97.2992 52.4 97.9992 53.2C98.6992 53.9 99.6992 54.3 100.899 54.3C102.299 54.3 103.599 53.9 104.799 52.9V54.8C103.699 55.6 102.199 56 100.399 56C98.6992 56 97.2992 55.4 96.1992 54.3C95.1992 53.2 94.6992 51.6 94.6992 49.5C94.6992 47.6 95.2992 46 96.2992 44.8C97.3992 43.6 98.7992 43 100.399 43C101.999 43 103.299 43.5 104.199 44.6C105.099 45.7 105.499 47.1 105.499 49L105.699 50Z" fill="#004226"/>
<mask id="mask2_617_124" style="mask-type:luminance" maskUnits="userSpaceOnUse" x="0" y="0" width="200" height="69">
<path d="M199.3 0H0V68.5H199.3V0Z" fill="white"/>
</mask>
<g mask="url(#mask2_617_124)">
<path d="M115.1 45.2996C114.7 45.0996 114.2 44.8996 113.6 44.8996C112.7 44.8996 112 45.2996 111.5 46.0996C111 46.8996 110.6 47.9996 110.6 49.3996V55.7996H108.6V43.2996H110.6V45.8996H110.7C111 44.9996 111.4 44.2996 112 43.7996C112.6 43.2996 113.2 43.0996 113.9 43.0996C114.4 43.0996 114.8 43.1996 115.1 43.2996V45.2996Z" fill="#004226"/>
</g>
<mask id="mask3_617_124" style="mask-type:luminance" maskUnits="userSpaceOnUse" x="0" y="0" width="200" height="69">
<path d="M199.3 0H0V68.5H199.3V0Z" fill="white"/>
</mask>
<g mask="url(#mask3_617_124)">
<path d="M199.2 0H0V68.5H199.3V0H199.2ZM198.6 0.600006V67.8H0.600006V0.600006H198.6Z" fill="#DADADA"/>
</g>
</svg>
