<svg xmlns="http://www.w3.org/2000/svg" width="24" height="200" viewBox="0 0 24 500" fill="none">
              <path d="M13.5 1.99756C13.5 1.16913 12.8284 0.497559 12 0.497559C11.1716 0.497559 10.5 1.16913 10.5 1.99756H13.5ZM10.9393 454.058C11.5251 454.644 12.4749 454.644 13.0607 454.058L22.6066 444.512C23.1924 443.927 23.1924 442.977 22.6066 442.391C22.0208 441.805 21.0711 441.805 20.4853 442.391L12 450.876L3.51472 442.391C2.92893 441.805 1.97919 441.805 1.3934 442.391C0.807611 442.977 0.807611 443.927 1.3934 444.512L10.9393 454.058ZM10.5 1.99756L10.5 452.998H13.5L13.5 1.99756H10.5Z" fill="url(#paint0_linear_2844_6338)"></path><defs>
                <linearGradient id="paint0_linear_2844_6338" x1="12.5" y1="2.01352" x2="5.43854" y2="452.895" gradientUnits="userSpaceOnUse"><stop stop-color="#6E7D87" stop-opacity="0"></stop><stop offset="1" stop-color="white"></stop></linearGradient></defs></svg>